<mxfile host="Electron" agent="Mozilla/5.0 (Windows NT 10.0; Win64; x64) AppleWebKit/537.36 (KHTML, like Gecko) draw.io/26.2.2 Chrome/134.0.6998.178 Electron/35.1.2 Safari/537.36" version="26.2.2" pages="4">
  <diagram name="Ingame_Usecase" id="QvxWrcLxjsWc5ciZGYXY">
    <mxGraphModel dx="1428" dy="841" grid="1" gridSize="10" guides="1" tooltips="1" connect="1" arrows="1" fold="1" page="1" pageScale="1" pageWidth="827" pageHeight="1169" math="0" shadow="0">
      <root>
        <mxCell id="74tZB_xBuC9bj4b8MlHr-0" />
        <mxCell id="74tZB_xBuC9bj4b8MlHr-1" parent="74tZB_xBuC9bj4b8MlHr-0" />
        <mxCell id="pNxBaH1C2H-VU2PtzYC2-4" value="" style="rounded=0;whiteSpace=wrap;html=1;" parent="74tZB_xBuC9bj4b8MlHr-1" vertex="1">
          <mxGeometry x="144" y="320" width="540" height="370" as="geometry" />
        </mxCell>
        <mxCell id="74tZB_xBuC9bj4b8MlHr-2" value="&lt;font style=&quot;font-size: 20px;&quot;&gt;Game User&lt;/font&gt;" style="shape=umlActor;verticalLabelPosition=bottom;verticalAlign=top;html=1;outlineConnect=0;" parent="74tZB_xBuC9bj4b8MlHr-1" vertex="1">
          <mxGeometry x="364" y="140" width="60" height="100" as="geometry" />
        </mxCell>
        <mxCell id="74tZB_xBuC9bj4b8MlHr-3" value="Ingame Usecase" style="text;html=1;align=left;verticalAlign=middle;whiteSpace=wrap;rounded=0;fontSize=30;" parent="74tZB_xBuC9bj4b8MlHr-1" vertex="1">
          <mxGeometry x="40" y="40" width="260" height="30" as="geometry" />
        </mxCell>
        <mxCell id="74tZB_xBuC9bj4b8MlHr-4" value="Play Input" style="ellipse;whiteSpace=wrap;html=1;" parent="74tZB_xBuC9bj4b8MlHr-1" vertex="1">
          <mxGeometry x="324" y="370" width="120" height="50" as="geometry" />
        </mxCell>
        <mxCell id="pNxBaH1C2H-VU2PtzYC2-1" value="Setting Input" style="ellipse;whiteSpace=wrap;html=1;" parent="74tZB_xBuC9bj4b8MlHr-1" vertex="1">
          <mxGeometry x="174" y="370" width="120" height="50" as="geometry" />
        </mxCell>
        <mxCell id="pNxBaH1C2H-VU2PtzYC2-2" value="Quit Input" style="ellipse;whiteSpace=wrap;html=1;" parent="74tZB_xBuC9bj4b8MlHr-1" vertex="1">
          <mxGeometry x="484" y="370" width="120" height="50" as="geometry" />
        </mxCell>
        <mxCell id="pNxBaH1C2H-VU2PtzYC2-5" value="Main Menu(View)" style="text;html=1;align=center;verticalAlign=middle;whiteSpace=wrap;rounded=0;" parent="74tZB_xBuC9bj4b8MlHr-1" vertex="1">
          <mxGeometry x="154" y="330" width="110" height="30" as="geometry" />
        </mxCell>
        <mxCell id="pNxBaH1C2H-VU2PtzYC2-6" value="" style="endArrow=classic;html=1;rounded=0;" parent="74tZB_xBuC9bj4b8MlHr-1" source="74tZB_xBuC9bj4b8MlHr-2" target="74tZB_xBuC9bj4b8MlHr-4" edge="1">
          <mxGeometry width="50" height="50" relative="1" as="geometry">
            <mxPoint x="424" y="310" as="sourcePoint" />
            <mxPoint x="474" y="260" as="targetPoint" />
          </mxGeometry>
        </mxCell>
        <mxCell id="pNxBaH1C2H-VU2PtzYC2-7" value="" style="endArrow=classic;html=1;rounded=0;entryX=0.5;entryY=0;entryDx=0;entryDy=0;" parent="74tZB_xBuC9bj4b8MlHr-1" source="74tZB_xBuC9bj4b8MlHr-2" target="pNxBaH1C2H-VU2PtzYC2-1" edge="1">
          <mxGeometry width="50" height="50" relative="1" as="geometry">
            <mxPoint x="374" y="237" as="sourcePoint" />
            <mxPoint x="263" y="371" as="targetPoint" />
          </mxGeometry>
        </mxCell>
        <mxCell id="pNxBaH1C2H-VU2PtzYC2-8" value="" style="endArrow=classic;html=1;rounded=0;entryX=0.292;entryY=0.1;entryDx=0;entryDy=0;entryPerimeter=0;" parent="74tZB_xBuC9bj4b8MlHr-1" source="74tZB_xBuC9bj4b8MlHr-2" target="pNxBaH1C2H-VU2PtzYC2-2" edge="1">
          <mxGeometry width="50" height="50" relative="1" as="geometry">
            <mxPoint x="401" y="250" as="sourcePoint" />
            <mxPoint x="394" y="370" as="targetPoint" />
          </mxGeometry>
        </mxCell>
        <mxCell id="1eBvik44-mBRUNAJvJIy-0" value="&lt;span style=&quot;font-size: 20px;&quot;&gt;더 있나요?&lt;/span&gt;" style="text;html=1;align=center;verticalAlign=middle;whiteSpace=wrap;rounded=0;" parent="74tZB_xBuC9bj4b8MlHr-1" vertex="1">
          <mxGeometry x="450" y="20" width="300" height="120" as="geometry" />
        </mxCell>
        <mxCell id="1eBvik44-mBRUNAJvJIy-1" value="Main Menu" style="text;html=1;align=left;verticalAlign=middle;whiteSpace=wrap;rounded=0;fontSize=17;" parent="74tZB_xBuC9bj4b8MlHr-1" vertex="1">
          <mxGeometry x="70" y="120" width="160" height="30" as="geometry" />
        </mxCell>
        <mxCell id="1eBvik44-mBRUNAJvJIy-3" value="" style="endArrow=classic;html=1;rounded=0;exitX=1;exitY=1;exitDx=0;exitDy=0;entryX=0.5;entryY=0;entryDx=0;entryDy=0;" parent="74tZB_xBuC9bj4b8MlHr-1" source="74tZB_xBuC9bj4b8MlHr-4" target="1eBvik44-mBRUNAJvJIy-4" edge="1">
          <mxGeometry width="50" height="50" relative="1" as="geometry">
            <mxPoint x="244" y="500" as="sourcePoint" />
            <mxPoint x="234" y="480" as="targetPoint" />
          </mxGeometry>
        </mxCell>
        <mxCell id="1eBvik44-mBRUNAJvJIy-4" value="Select SaveSlot" style="ellipse;whiteSpace=wrap;html=1;" parent="74tZB_xBuC9bj4b8MlHr-1" vertex="1">
          <mxGeometry x="444" y="500" width="130" height="60" as="geometry" />
        </mxCell>
        <mxCell id="1eBvik44-mBRUNAJvJIy-5" value="&lt;span style=&quot;font-weight: normal;&quot;&gt;New Game&lt;/span&gt;" style="ellipse;whiteSpace=wrap;html=1;fontStyle=1" parent="74tZB_xBuC9bj4b8MlHr-1" vertex="1">
          <mxGeometry x="224" y="500" width="140" height="60" as="geometry" />
        </mxCell>
        <mxCell id="1eBvik44-mBRUNAJvJIy-6" value="" style="endArrow=classic;html=1;rounded=0;entryX=0.5;entryY=0;entryDx=0;entryDy=0;exitX=0;exitY=1;exitDx=0;exitDy=0;" parent="74tZB_xBuC9bj4b8MlHr-1" source="74tZB_xBuC9bj4b8MlHr-4" target="1eBvik44-mBRUNAJvJIy-5" edge="1">
          <mxGeometry width="50" height="50" relative="1" as="geometry">
            <mxPoint x="234" y="410" as="sourcePoint" />
            <mxPoint x="134" y="510" as="targetPoint" />
          </mxGeometry>
        </mxCell>
        <mxCell id="1eBvik44-mBRUNAJvJIy-8" value="Load Data" style="ellipse;whiteSpace=wrap;html=1;" parent="74tZB_xBuC9bj4b8MlHr-1" vertex="1">
          <mxGeometry x="474" y="600" width="130" height="60" as="geometry" />
        </mxCell>
        <mxCell id="1eBvik44-mBRUNAJvJIy-9" value="" style="endArrow=classic;html=1;rounded=0;exitX=0.5;exitY=1;exitDx=0;exitDy=0;" parent="74tZB_xBuC9bj4b8MlHr-1" source="1eBvik44-mBRUNAJvJIy-4" target="1eBvik44-mBRUNAJvJIy-8" edge="1">
          <mxGeometry width="50" height="50" relative="1" as="geometry">
            <mxPoint x="436" y="423" as="sourcePoint" />
            <mxPoint x="529" y="530" as="targetPoint" />
          </mxGeometry>
        </mxCell>
        <mxCell id="1eBvik44-mBRUNAJvJIy-10" value="&lt;span style=&quot;font-weight: normal;&quot;&gt;Initialize Data&lt;/span&gt;" style="ellipse;whiteSpace=wrap;html=1;fontStyle=1" parent="74tZB_xBuC9bj4b8MlHr-1" vertex="1">
          <mxGeometry x="214" y="600" width="140" height="60" as="geometry" />
        </mxCell>
        <mxCell id="1eBvik44-mBRUNAJvJIy-11" value="" style="endArrow=classic;html=1;rounded=0;entryX=0.5;entryY=0;entryDx=0;entryDy=0;exitX=0.5;exitY=1;exitDx=0;exitDy=0;" parent="74tZB_xBuC9bj4b8MlHr-1" source="1eBvik44-mBRUNAJvJIy-5" target="1eBvik44-mBRUNAJvJIy-10" edge="1">
          <mxGeometry width="50" height="50" relative="1" as="geometry">
            <mxPoint x="352" y="423" as="sourcePoint" />
            <mxPoint x="304" y="530" as="targetPoint" />
          </mxGeometry>
        </mxCell>
        <mxCell id="zk7RnxjZrzplbblyp22L-0" value="Text" style="text;html=1;align=center;verticalAlign=middle;whiteSpace=wrap;rounded=0;fontSize=21;" vertex="1" parent="74tZB_xBuC9bj4b8MlHr-1">
          <mxGeometry x="78" y="720" width="66" height="50" as="geometry" />
        </mxCell>
      </root>
    </mxGraphModel>
  </diagram>
  <diagram id="qsnd2jr1oJRO6Lovv7jY" name="Exploration_Usecase">
    <mxGraphModel dx="1428" dy="841" grid="1" gridSize="10" guides="1" tooltips="1" connect="1" arrows="1" fold="1" page="1" pageScale="1" pageWidth="827" pageHeight="1169" math="0" shadow="0">
      <root>
        <mxCell id="0" />
        <mxCell id="1" parent="0" />
        <mxCell id="ApU6OCgnxXkRyjH4jZOb-1" value="ExploreController" style="shape=umlActor;verticalLabelPosition=bottom;verticalAlign=top;html=1;outlineConnect=0;" parent="1" vertex="1">
          <mxGeometry x="140" y="150" width="30" height="60" as="geometry" />
        </mxCell>
        <mxCell id="ApU6OCgnxXkRyjH4jZOb-4" value="Exploration Usecase" style="text;html=1;align=left;verticalAlign=middle;whiteSpace=wrap;rounded=0;fontSize=17;" parent="1" vertex="1">
          <mxGeometry x="40" y="40" width="260" height="30" as="geometry" />
        </mxCell>
        <mxCell id="ApU6OCgnxXkRyjH4jZOb-8" value="Use Case" style="ellipse;whiteSpace=wrap;html=1;" parent="1" vertex="1">
          <mxGeometry x="300" y="100" width="120" height="50" as="geometry" />
        </mxCell>
      </root>
    </mxGraphModel>
  </diagram>
  <diagram id="C5RBs43oDa-KdzZeNtuy" name="Page-1">
    <mxGraphModel dx="1428" dy="841" grid="1" gridSize="10" guides="1" tooltips="1" connect="1" arrows="1" fold="1" page="1" pageScale="1" pageWidth="827" pageHeight="1169" math="0" shadow="0">
      <root>
        <mxCell id="WIyWlLk6GJQsqaUBKTNV-0" />
        <mxCell id="WIyWlLk6GJQsqaUBKTNV-1" parent="WIyWlLk6GJQsqaUBKTNV-0" />
        <mxCell id="WQ3rpo5DKImuTTCADS9J-4" value="&lt;span style=&quot;font-weight: 400;&quot;&gt;BattleController&lt;/span&gt;" style="swimlane;fontStyle=1;align=center;verticalAlign=top;childLayout=stackLayout;horizontal=1;startSize=26;horizontalStack=0;resizeParent=1;resizeParentMax=0;resizeLast=0;collapsible=1;marginBottom=0;whiteSpace=wrap;html=1;" parent="WIyWlLk6GJQsqaUBKTNV-1" vertex="1">
          <mxGeometry x="310" y="70" width="160" height="86" as="geometry" />
        </mxCell>
        <mxCell id="WQ3rpo5DKImuTTCADS9J-5" value="+ field: type" style="text;strokeColor=none;fillColor=none;align=left;verticalAlign=top;spacingLeft=4;spacingRight=4;overflow=hidden;rotatable=0;points=[[0,0.5],[1,0.5]];portConstraint=eastwest;whiteSpace=wrap;html=1;" parent="WQ3rpo5DKImuTTCADS9J-4" vertex="1">
          <mxGeometry y="26" width="160" height="26" as="geometry" />
        </mxCell>
        <mxCell id="WQ3rpo5DKImuTTCADS9J-6" value="" style="line;strokeWidth=1;fillColor=none;align=left;verticalAlign=middle;spacingTop=-1;spacingLeft=3;spacingRight=3;rotatable=0;labelPosition=right;points=[];portConstraint=eastwest;strokeColor=inherit;" parent="WQ3rpo5DKImuTTCADS9J-4" vertex="1">
          <mxGeometry y="52" width="160" height="8" as="geometry" />
        </mxCell>
        <mxCell id="WQ3rpo5DKImuTTCADS9J-7" value="+ InitEnvironment()" style="text;strokeColor=none;fillColor=none;align=left;verticalAlign=top;spacingLeft=4;spacingRight=4;overflow=hidden;rotatable=0;points=[[0,0.5],[1,0.5]];portConstraint=eastwest;whiteSpace=wrap;html=1;" parent="WQ3rpo5DKImuTTCADS9J-4" vertex="1">
          <mxGeometry y="60" width="160" height="26" as="geometry" />
        </mxCell>
      </root>
    </mxGraphModel>
  </diagram>
  <diagram id="rkKb2ZegXGWQIX_vkZVs" name="Unit Behaviour">
    <mxGraphModel dx="1434" dy="836" grid="1" gridSize="10" guides="1" tooltips="1" connect="1" arrows="1" fold="1" page="1" pageScale="1" pageWidth="827" pageHeight="1169" math="0" shadow="0">
      <root>
        <mxCell id="0" />
        <mxCell id="1" parent="0" />
      </root>
    </mxGraphModel>
  </diagram>
</mxfile>
